<svg width="600" height="392" xmlns="http://www.w3.org/2000/svg"> <rect width="100%" height="100%" fill="#FEFEFE" />
<line x1="70" y1="252" x2="530" y2="252" stroke="#9f9f9f" stroke-width="1" />
<rect x="70" y="87" width="460" height="165" fill="#FEFEFE" />
<text text-anchor="middle" x="300.0" y="20" font-family="'Helvetica Neue', Arial, sans-serif" font-weight="bold" font-size="22" fill="#000000">Popularity of the first name Lamont</text>
<text text-anchor="middle" x="300.0" y="42" font-family="'Helvetica Neue', Arial, sans-serif" font-size="14" fill="#000000">correlates with</text>
<text text-anchor="middle" x="300.0" y="68" font-family="'Helvetica Neue', Arial, sans-serif" font-weight="bold" font-size="22" fill="#ba0f27">Burglary rates in the US</text>
<text text-anchor="start" x="23" y="297.3333333333333" font-family="'Helvetica Neue', Arial, sans-serif" font-size="14" fill="#9f9f9f">Babies of all sexes born in the US named Lamont &#183; Source: US Social Security</text>
<text text-anchor="start" x="23" y="313.3333333333333" font-family="'Helvetica Neue', Arial, sans-serif" font-size="14" fill="#9f9f9f">Administration</text>
<text text-anchor="start" x="23" y="336.66666666666663" font-family="'Helvetica Neue', Arial, sans-serif" font-size="14" fill="#9f9f9f">The burglary rate per 100,000 residents in United States &#183; Source: FBI</text>
<text text-anchor="start" x="23" y="352.66666666666663" font-family="'Helvetica Neue', Arial, sans-serif" font-size="14" fill="#9f9f9f">Criminal Justice Information Services</text>
<text text-anchor="start" x="23" y="375.99999999999994" font-family="'Helvetica Neue', Arial, sans-serif" font-size="14" fill="#9f9f9f">1985-2022, r=0.968, r&#178;=0.938, p&lt;0.01  &#183;  tylervigen.com/spurious/correlation/5950</text>
<polyline points="5,292.66666666666663 20,292.66666666666663" style="fill:none;stroke:#000000;stroke-width:1.75" stroke-dasharray="3,1" />
<polygon points="3.14,292.66666666666663 5,290.8066666666666 6.859999999999999,292.66666666666663 5,294.52666666666664" stroke="#F7F7F7" stroke-width="1.55" fill="#F7F7F7"  />
<polygon points="3.14,292.66666666666663 5,290.8066666666666 6.859999999999999,292.66666666666663 5,294.52666666666664" stroke="#000000" stroke-width="1.55" fill="#000000"  />
<polyline points="5,331.99999999999994 20,331.99999999999994" style="fill:none;stroke:#ba0f27;stroke-width:1.75" />
<circle cx="5" cy="331.99999999999994" r="1.55" stroke="#F7F7F7" stroke-width="1.55" fill="#F7F7F7" />
<circle cx="5" cy="331.99999999999994" r="1.55" stroke="#ba0f27" stroke-width="1.55" fill="#ba0f27"  />
<text x="5" y="174.5" transform="rotate(270 5 169.5)" text-anchor="middle" fill="#000000" font-family="'Helvetica Neue', Arial, sans-serif" font-size="14" dominant-baseline="central">Babies born</text>
<text x="169.5" y="-389" transform="rotate(90 100 100)" text-anchor="middle" fill="#ba0f27" font-family="'Helvetica Neue', Arial, sans-serif" font-size="14" dominant-baseline="central">Burglary rate</text>
<line x1="71" y1="93.55" x2="528" y2="93.55" stroke="#F3F3F3" stroke-width="1" fill="#FEFEFE" />
<text text-anchor="end" x="62" y="98.21666666666667" font-family="'Helvetica Neue', Arial, sans-serif" font-size="12" fill="#000000">342</text>
<text text-anchor="start" x="538" y="98.21666666666667" font-family="'Helvetica Neue', Arial, sans-serif" font-size="12" fill="#ba0f27">1.3K</text>
<line x1="71" y1="131.525" x2="528" y2="131.525" stroke="#F3F3F3" stroke-width="1" fill="#FEFEFE" />
<text text-anchor="end" x="62" y="136.19166666666666" font-family="'Helvetica Neue', Arial, sans-serif" font-size="12">274</text>
<text text-anchor="start" x="538" y="136.19166666666666" font-family="'Helvetica Neue', Arial, sans-serif" font-size="12" fill="#ba0f27">1.1K</text>
<line x1="71" y1="169.5" x2="528" y2="169.5" stroke="#F3F3F3" stroke-width="1" fill="#FEFEFE" />
<text text-anchor="end" x="62" y="174.16666666666666" font-family="'Helvetica Neue', Arial, sans-serif" font-size="12">206</text>
<text text-anchor="start" x="538" y="174.16666666666666" font-family="'Helvetica Neue', Arial, sans-serif" font-size="12" fill="#ba0f27">810</text>
<line x1="71" y1="207.47500000000002" x2="528" y2="207.47500000000002" stroke="#F3F3F3" stroke-width="1" fill="#FEFEFE" />
<text text-anchor="end" x="62" y="212.14166666666668" font-family="'Helvetica Neue', Arial, sans-serif" font-size="12">138</text>
<text text-anchor="start" x="538" y="212.14166666666668" font-family="'Helvetica Neue', Arial, sans-serif" font-size="12" fill="#ba0f27">540</text>
<line x1="71" y1="245.45" x2="528" y2="245.45" stroke="#F3F3F3" stroke-width="1" fill="#FEFEFE" />
<text text-anchor="end" x="62" y="250.11666666666665" font-family="'Helvetica Neue', Arial, sans-serif" font-size="12">70</text>
<text text-anchor="start" x="538" y="250.11666666666665" font-family="'Helvetica Neue', Arial, sans-serif" font-size="12" fill="#ba0f27">270</text>
<polyline points="76.55000000000003,252 76.55000000000003,258" style="fill:none;stroke:#000000;stroke-width:1" />
<polyline points="136.9418918918919,252 136.9418918918919,258" style="fill:none;stroke:#000000;stroke-width:1" />
<polyline points="197.33378378378382,252 197.33378378378382,258" style="fill:none;stroke:#000000;stroke-width:1" />
<polyline points="257.7256756756757,252 257.7256756756757,258" style="fill:none;stroke:#000000;stroke-width:1" />
<polyline points="318.11756756756756,252 318.11756756756756,258" style="fill:none;stroke:#000000;stroke-width:1" />
<polyline points="378.50945945945944,252 378.50945945945944,258" style="fill:none;stroke:#000000;stroke-width:1" />
<polyline points="438.90135135135137,252 438.90135135135137,258" style="fill:none;stroke:#000000;stroke-width:1" />
<polyline points="499.29324324324324,252 499.29324324324324,258" style="fill:none;stroke:#000000;stroke-width:1" />
<text text-anchor="middle" x="76.55000000000003" y="273" font-weight="bold" font-family="'Helvetica Neue', Arial, sans-serif" font-size="14">1985</text>
<text text-anchor="middle" x="136.9418918918919" y="273" font-weight="bold" font-family="'Helvetica Neue', Arial, sans-serif" font-size="14">1990</text>
<text text-anchor="middle" x="197.33378378378382" y="273" font-weight="bold" font-family="'Helvetica Neue', Arial, sans-serif" font-size="14">1995</text>
<text text-anchor="middle" x="257.7256756756757" y="273" font-weight="bold" font-family="'Helvetica Neue', Arial, sans-serif" font-size="14">2000</text>
<text text-anchor="middle" x="318.11756756756756" y="273" font-weight="bold" font-family="'Helvetica Neue', Arial, sans-serif" font-size="14">2005</text>
<text text-anchor="middle" x="378.50945945945944" y="273" font-weight="bold" font-family="'Helvetica Neue', Arial, sans-serif" font-size="14">2010</text>
<text text-anchor="middle" x="438.90135135135137" y="273" font-weight="bold" font-family="'Helvetica Neue', Arial, sans-serif" font-size="14">2015</text>
<text text-anchor="middle" x="499.29324324324324" y="273" font-weight="bold" font-family="'Helvetica Neue', Arial, sans-serif" font-size="14">2020</text>
<polyline points="76.55000000000003,101.72165740740739 88.6283783783784,93.55" style="fill:none;stroke:#ba0f27;stroke-width:1.75"  />
<polyline points="88.6283783783784,93.55 100.70675675675679,95.53313888888887" style="fill:none;stroke:#ba0f27;stroke-width:1.75"  />
<polyline points="100.70675675675679,95.53313888888887 112.78513513513516,98.27577777777776" style="fill:none;stroke:#ba0f27;stroke-width:1.75"  />
<polyline points="112.78513513513516,98.27577777777776 124.86351351351354,102.86090740740741" style="fill:none;stroke:#ba0f27;stroke-width:1.75"  />
<polyline points="124.86351351351354,102.86090740740741 136.9418918918919,110.09022222222221" style="fill:none;stroke:#ba0f27;stroke-width:1.75"  />
<polyline points="136.9418918918919,110.09022222222221 149.02027027027032,107.29132407407408" style="fill:none;stroke:#ba0f27;stroke-width:1.75"  />
<polyline points="149.02027027027032,107.29132407407408 161.0986486486487,119.06357407407405" style="fill:none;stroke:#ba0f27;stroke-width:1.75"  />
<polyline points="161.0986486486487,119.06357407407405 173.17702702702707,128.72610185185184" style="fill:none;stroke:#ba0f27;stroke-width:1.75"  />
<polyline points="173.17702702702707,128.72610185185184 185.25540540540544,136.8274351851852" style="fill:none;stroke:#ba0f27;stroke-width:1.75"  />
<polyline points="185.25540540540544,136.8274351851852 197.33378378378382,144.57714814814813" style="fill:none;stroke:#ba0f27;stroke-width:1.75"  />
<polyline points="197.33378378378382,144.57714814814813 209.4121621621622,150.48437037037036" style="fill:none;stroke:#ba0f27;stroke-width:1.75"  />
<polyline points="209.4121621621622,150.48437037037036 221.49054054054056,154.1412222222222" style="fill:none;stroke:#ba0f27;stroke-width:1.75"  />
<polyline points="221.49054054054056,154.1412222222222 233.56891891891894,161.98938888888887" style="fill:none;stroke:#ba0f27;stroke-width:1.75"  />
<polyline points="233.56891891891894,161.98938888888887 245.6472972972973,175.04153703703705" style="fill:none;stroke:#ba0f27;stroke-width:1.75"  />
<polyline points="245.6472972972973,175.04153703703705 257.7256756756757,180.89249999999998" style="fill:none;stroke:#ba0f27;stroke-width:1.75"  />
<polyline points="257.7256756756757,180.89249999999998 269.80405405405406,179.06407407407409" style="fill:none;stroke:#ba0f27;stroke-width:1.75"  />
<polyline points="269.80405405405406,179.06407407407409 281.88243243243244,178.33270370370371" style="fill:none;stroke:#ba0f27;stroke-width:1.75"  />
<polyline points="281.88243243243244,178.33270370370371 293.9608108108108,179.17659259259258" style="fill:none;stroke:#ba0f27;stroke-width:1.75"  />
<polyline points="293.9608108108108,179.17659259259258 306.0391891891892,180.68152777777777" style="fill:none;stroke:#ba0f27;stroke-width:1.75"  />
<polyline points="306.0391891891892,180.68152777777777 318.11756756756756,181.1597314814815" style="fill:none;stroke:#ba0f27;stroke-width:1.75"  />
<polyline points="318.11756756756756,181.1597314814815 330.195945945946,180.28771296296296" style="fill:none;stroke:#ba0f27;stroke-width:1.75"  />
<polyline points="330.195945945946,180.28771296296296 342.2743243243243,181.27224999999999" style="fill:none;stroke:#ba0f27;stroke-width:1.75"  />
<polyline points="342.2743243243243,181.27224999999999 354.3527027027027,180.30177777777777" style="fill:none;stroke:#ba0f27;stroke-width:1.75"  />
<polyline points="354.3527027027027,180.30177777777777 366.4310810810811,182.45369444444444" style="fill:none;stroke:#ba0f27;stroke-width:1.75"  />
<polyline points="366.4310810810811,182.45369444444444 378.5094594594595,184.80251851851853" style="fill:none;stroke:#ba0f27;stroke-width:1.75"  />
<polyline points="378.5094594594595,184.80251851851853 390.58783783783787,184.76032407407408" style="fill:none;stroke:#ba0f27;stroke-width:1.75"  />
<polyline points="390.58783783783787,184.76032407407408 402.66621621621624,188.85318518518517" style="fill:none;stroke:#ba0f27;stroke-width:1.75"  />
<polyline points="402.66621621621624,188.85318518518517 414.7445945945946,197.53117592592594" style="fill:none;stroke:#ba0f27;stroke-width:1.75"  />
<polyline points="414.7445945945946,197.53117592592594 426.822972972973,207.84068518518518" style="fill:none;stroke:#ba0f27;stroke-width:1.75"  />
<polyline points="426.822972972973,207.84068518518518 438.90135135135137,213.81823148148146" style="fill:none;stroke:#ba0f27;stroke-width:1.75"  />
<polyline points="438.90135135135137,213.81823148148146 450.97972972972974,217.4469537037037" style="fill:none;stroke:#ba0f27;stroke-width:1.75"  />
<polyline points="450.97972972972974,217.4469537037037 463.0581081081081,222.96036111111113" style="fill:none;stroke:#ba0f27;stroke-width:1.75"  />
<polyline points="463.0581081081081,222.96036111111113 475.1364864864865,230.23187037037036" style="fill:none;stroke:#ba0f27;stroke-width:1.75"  />
<polyline points="475.1364864864865,230.23187037037036 487.21486486486486,235.5061759259259" style="fill:none;stroke:#ba0f27;stroke-width:1.75"  />
<polyline points="487.21486486486486,235.5061759259259 499.29324324324324,239.20522222222223" style="fill:none;stroke:#ba0f27;stroke-width:1.75"  />
<polyline points="499.29324324324324,239.20522222222223 511.3716216216216,245.29528703703704" style="fill:none;stroke:#ba0f27;stroke-width:1.75"  />
<polyline points="511.3716216216216,245.29528703703704 523.45,245.45" style="fill:none;stroke:#ba0f27;stroke-width:1.75"  />
<circle cx="76.55000000000003" cy="101.72165740740739" r="1.55" stroke="#F7F7F7" stroke-width="1.55" fill="#F7F7F7" />
<circle cx="76.55000000000003" cy="101.72165740740739" r="1.55" stroke="#ba0f27" stroke-width="1.55" fill="#ba0f27"  />
<circle cx="88.6283783783784" cy="93.55" r="1.55" stroke="#F7F7F7" stroke-width="1.55" fill="#F7F7F7" />
<circle cx="88.6283783783784" cy="93.55" r="1.55" stroke="#ba0f27" stroke-width="1.55" fill="#ba0f27"  />
<circle cx="100.70675675675679" cy="95.53313888888887" r="1.55" stroke="#F7F7F7" stroke-width="1.55" fill="#F7F7F7" />
<circle cx="100.70675675675679" cy="95.53313888888887" r="1.55" stroke="#ba0f27" stroke-width="1.55" fill="#ba0f27"  />
<circle cx="112.78513513513516" cy="98.27577777777776" r="1.55" stroke="#F7F7F7" stroke-width="1.55" fill="#F7F7F7" />
<circle cx="112.78513513513516" cy="98.27577777777776" r="1.55" stroke="#ba0f27" stroke-width="1.55" fill="#ba0f27"  />
<circle cx="124.86351351351354" cy="102.86090740740741" r="1.55" stroke="#F7F7F7" stroke-width="1.55" fill="#F7F7F7" />
<circle cx="124.86351351351354" cy="102.86090740740741" r="1.55" stroke="#ba0f27" stroke-width="1.55" fill="#ba0f27"  />
<circle cx="136.9418918918919" cy="110.09022222222221" r="1.55" stroke="#F7F7F7" stroke-width="1.55" fill="#F7F7F7" />
<circle cx="136.9418918918919" cy="110.09022222222221" r="1.55" stroke="#ba0f27" stroke-width="1.55" fill="#ba0f27"  />
<circle cx="149.02027027027032" cy="107.29132407407408" r="1.55" stroke="#F7F7F7" stroke-width="1.55" fill="#F7F7F7" />
<circle cx="149.02027027027032" cy="107.29132407407408" r="1.55" stroke="#ba0f27" stroke-width="1.55" fill="#ba0f27"  />
<circle cx="161.0986486486487" cy="119.06357407407405" r="1.55" stroke="#F7F7F7" stroke-width="1.55" fill="#F7F7F7" />
<circle cx="161.0986486486487" cy="119.06357407407405" r="1.55" stroke="#ba0f27" stroke-width="1.55" fill="#ba0f27"  />
<circle cx="173.17702702702707" cy="128.72610185185184" r="1.55" stroke="#F7F7F7" stroke-width="1.55" fill="#F7F7F7" />
<circle cx="173.17702702702707" cy="128.72610185185184" r="1.55" stroke="#ba0f27" stroke-width="1.55" fill="#ba0f27"  />
<circle cx="185.25540540540544" cy="136.8274351851852" r="1.55" stroke="#F7F7F7" stroke-width="1.55" fill="#F7F7F7" />
<circle cx="185.25540540540544" cy="136.8274351851852" r="1.55" stroke="#ba0f27" stroke-width="1.55" fill="#ba0f27"  />
<circle cx="197.33378378378382" cy="144.57714814814813" r="1.55" stroke="#F7F7F7" stroke-width="1.55" fill="#F7F7F7" />
<circle cx="197.33378378378382" cy="144.57714814814813" r="1.55" stroke="#ba0f27" stroke-width="1.55" fill="#ba0f27"  />
<circle cx="209.4121621621622" cy="150.48437037037036" r="1.55" stroke="#F7F7F7" stroke-width="1.55" fill="#F7F7F7" />
<circle cx="209.4121621621622" cy="150.48437037037036" r="1.55" stroke="#ba0f27" stroke-width="1.55" fill="#ba0f27"  />
<circle cx="221.49054054054056" cy="154.1412222222222" r="1.55" stroke="#F7F7F7" stroke-width="1.55" fill="#F7F7F7" />
<circle cx="221.49054054054056" cy="154.1412222222222" r="1.55" stroke="#ba0f27" stroke-width="1.55" fill="#ba0f27"  />
<circle cx="233.56891891891894" cy="161.98938888888887" r="1.55" stroke="#F7F7F7" stroke-width="1.55" fill="#F7F7F7" />
<circle cx="233.56891891891894" cy="161.98938888888887" r="1.55" stroke="#ba0f27" stroke-width="1.55" fill="#ba0f27"  />
<circle cx="245.6472972972973" cy="175.04153703703705" r="1.55" stroke="#F7F7F7" stroke-width="1.55" fill="#F7F7F7" />
<circle cx="245.6472972972973" cy="175.04153703703705" r="1.55" stroke="#ba0f27" stroke-width="1.55" fill="#ba0f27"  />
<circle cx="257.7256756756757" cy="180.89249999999998" r="1.55" stroke="#F7F7F7" stroke-width="1.55" fill="#F7F7F7" />
<circle cx="257.7256756756757" cy="180.89249999999998" r="1.55" stroke="#ba0f27" stroke-width="1.55" fill="#ba0f27"  />
<circle cx="269.80405405405406" cy="179.06407407407409" r="1.55" stroke="#F7F7F7" stroke-width="1.55" fill="#F7F7F7" />
<circle cx="269.80405405405406" cy="179.06407407407409" r="1.55" stroke="#ba0f27" stroke-width="1.55" fill="#ba0f27"  />
<circle cx="281.88243243243244" cy="178.33270370370371" r="1.55" stroke="#F7F7F7" stroke-width="1.55" fill="#F7F7F7" />
<circle cx="281.88243243243244" cy="178.33270370370371" r="1.55" stroke="#ba0f27" stroke-width="1.55" fill="#ba0f27"  />
<circle cx="293.9608108108108" cy="179.17659259259258" r="1.55" stroke="#F7F7F7" stroke-width="1.55" fill="#F7F7F7" />
<circle cx="293.9608108108108" cy="179.17659259259258" r="1.55" stroke="#ba0f27" stroke-width="1.55" fill="#ba0f27"  />
<circle cx="306.0391891891892" cy="180.68152777777777" r="1.55" stroke="#F7F7F7" stroke-width="1.55" fill="#F7F7F7" />
<circle cx="306.0391891891892" cy="180.68152777777777" r="1.55" stroke="#ba0f27" stroke-width="1.55" fill="#ba0f27"  />
<circle cx="318.11756756756756" cy="181.1597314814815" r="1.55" stroke="#F7F7F7" stroke-width="1.55" fill="#F7F7F7" />
<circle cx="318.11756756756756" cy="181.1597314814815" r="1.55" stroke="#ba0f27" stroke-width="1.55" fill="#ba0f27"  />
<circle cx="330.195945945946" cy="180.28771296296296" r="1.55" stroke="#F7F7F7" stroke-width="1.55" fill="#F7F7F7" />
<circle cx="330.195945945946" cy="180.28771296296296" r="1.55" stroke="#ba0f27" stroke-width="1.55" fill="#ba0f27"  />
<circle cx="342.2743243243243" cy="181.27224999999999" r="1.55" stroke="#F7F7F7" stroke-width="1.55" fill="#F7F7F7" />
<circle cx="342.2743243243243" cy="181.27224999999999" r="1.55" stroke="#ba0f27" stroke-width="1.55" fill="#ba0f27"  />
<circle cx="354.3527027027027" cy="180.30177777777777" r="1.55" stroke="#F7F7F7" stroke-width="1.55" fill="#F7F7F7" />
<circle cx="354.3527027027027" cy="180.30177777777777" r="1.55" stroke="#ba0f27" stroke-width="1.55" fill="#ba0f27"  />
<circle cx="366.4310810810811" cy="182.45369444444444" r="1.55" stroke="#F7F7F7" stroke-width="1.55" fill="#F7F7F7" />
<circle cx="366.4310810810811" cy="182.45369444444444" r="1.55" stroke="#ba0f27" stroke-width="1.55" fill="#ba0f27"  />
<circle cx="378.5094594594595" cy="184.80251851851853" r="1.55" stroke="#F7F7F7" stroke-width="1.55" fill="#F7F7F7" />
<circle cx="378.5094594594595" cy="184.80251851851853" r="1.55" stroke="#ba0f27" stroke-width="1.55" fill="#ba0f27"  />
<circle cx="390.58783783783787" cy="184.76032407407408" r="1.55" stroke="#F7F7F7" stroke-width="1.55" fill="#F7F7F7" />
<circle cx="390.58783783783787" cy="184.76032407407408" r="1.55" stroke="#ba0f27" stroke-width="1.55" fill="#ba0f27"  />
<circle cx="402.66621621621624" cy="188.85318518518517" r="1.55" stroke="#F7F7F7" stroke-width="1.55" fill="#F7F7F7" />
<circle cx="402.66621621621624" cy="188.85318518518517" r="1.55" stroke="#ba0f27" stroke-width="1.55" fill="#ba0f27"  />
<circle cx="414.7445945945946" cy="197.53117592592594" r="1.55" stroke="#F7F7F7" stroke-width="1.55" fill="#F7F7F7" />
<circle cx="414.7445945945946" cy="197.53117592592594" r="1.55" stroke="#ba0f27" stroke-width="1.55" fill="#ba0f27"  />
<circle cx="426.822972972973" cy="207.84068518518518" r="1.55" stroke="#F7F7F7" stroke-width="1.55" fill="#F7F7F7" />
<circle cx="426.822972972973" cy="207.84068518518518" r="1.55" stroke="#ba0f27" stroke-width="1.55" fill="#ba0f27"  />
<circle cx="438.90135135135137" cy="213.81823148148146" r="1.55" stroke="#F7F7F7" stroke-width="1.55" fill="#F7F7F7" />
<circle cx="438.90135135135137" cy="213.81823148148146" r="1.55" stroke="#ba0f27" stroke-width="1.55" fill="#ba0f27"  />
<circle cx="450.97972972972974" cy="217.4469537037037" r="1.55" stroke="#F7F7F7" stroke-width="1.55" fill="#F7F7F7" />
<circle cx="450.97972972972974" cy="217.4469537037037" r="1.55" stroke="#ba0f27" stroke-width="1.55" fill="#ba0f27"  />
<circle cx="463.0581081081081" cy="222.96036111111113" r="1.55" stroke="#F7F7F7" stroke-width="1.55" fill="#F7F7F7" />
<circle cx="463.0581081081081" cy="222.96036111111113" r="1.55" stroke="#ba0f27" stroke-width="1.55" fill="#ba0f27"  />
<circle cx="475.1364864864865" cy="230.23187037037036" r="1.55" stroke="#F7F7F7" stroke-width="1.55" fill="#F7F7F7" />
<circle cx="475.1364864864865" cy="230.23187037037036" r="1.55" stroke="#ba0f27" stroke-width="1.55" fill="#ba0f27"  />
<circle cx="487.21486486486486" cy="235.5061759259259" r="1.55" stroke="#F7F7F7" stroke-width="1.55" fill="#F7F7F7" />
<circle cx="487.21486486486486" cy="235.5061759259259" r="1.55" stroke="#ba0f27" stroke-width="1.55" fill="#ba0f27"  />
<circle cx="499.29324324324324" cy="239.20522222222223" r="1.55" stroke="#F7F7F7" stroke-width="1.55" fill="#F7F7F7" />
<circle cx="499.29324324324324" cy="239.20522222222223" r="1.55" stroke="#ba0f27" stroke-width="1.55" fill="#ba0f27"  />
<circle cx="511.3716216216216" cy="245.29528703703704" r="1.55" stroke="#F7F7F7" stroke-width="1.55" fill="#F7F7F7" />
<circle cx="511.3716216216216" cy="245.29528703703704" r="1.55" stroke="#ba0f27" stroke-width="1.55" fill="#ba0f27"  />
<circle cx="523.45" cy="245.45" r="1.55" stroke="#F7F7F7" stroke-width="1.55" fill="#F7F7F7" />
<circle cx="523.45" cy="245.45" r="1.55" stroke="#ba0f27" stroke-width="1.55" fill="#ba0f27"  />
<polyline points="76.55000000000003,121.47279411764706 88.6283783783784,102.48529411764706" style="fill:none;stroke:#000000;stroke-width:1.75" stroke-dasharray="3,1"  />
<polyline points="88.6283783783784,102.48529411764706 100.70675675675679,117.56360294117647" style="fill:none;stroke:#000000;stroke-width:1.75" stroke-dasharray="3,1"  />
<polyline points="100.70675675675679,117.56360294117647 112.78513513513516,113.09595588235294" style="fill:none;stroke:#000000;stroke-width:1.75" stroke-dasharray="3,1"  />
<polyline points="112.78513513513516,113.09595588235294 124.86351351351354,95.78382352941176" style="fill:none;stroke:#000000;stroke-width:1.75" stroke-dasharray="3,1"  />
<polyline points="124.86351351351354,95.78382352941176 136.9418918918919,109.18676470588235" style="fill:none;stroke:#000000;stroke-width:1.75" stroke-dasharray="3,1"  />
<polyline points="136.9418918918919,109.18676470588235 149.02027027027032,109.18676470588235" style="fill:none;stroke:#000000;stroke-width:1.75" stroke-dasharray="3,1"  />
<polyline points="149.02027027027032,109.18676470588235 161.0986486486487,93.55" style="fill:none;stroke:#000000;stroke-width:1.75" stroke-dasharray="3,1"  />
<polyline points="161.0986486486487,93.55 173.17702702702707,104.16066176470588" style="fill:none;stroke:#000000;stroke-width:1.75" stroke-dasharray="3,1"  />
<polyline points="173.17702702702707,104.16066176470588 185.25540540540544,125.38198529411764" style="fill:none;stroke:#000000;stroke-width:1.75" stroke-dasharray="3,1"  />
<polyline points="185.25540540540544,125.38198529411764 197.33378378378382,132.64191176470587" style="fill:none;stroke:#000000;stroke-width:1.75" stroke-dasharray="3,1"  />
<polyline points="197.33378378378382,132.64191176470587 209.4121621621622,160.56470588235294" style="fill:none;stroke:#000000;stroke-width:1.75" stroke-dasharray="3,1"  />
<polyline points="209.4121621621622,160.56470588235294 221.49054054054056,158.33088235294116" style="fill:none;stroke:#000000;stroke-width:1.75" stroke-dasharray="3,1"  />
<polyline points="221.49054054054056,158.33088235294116 233.56891891891894,160.00625" style="fill:none;stroke:#000000;stroke-width:1.75" stroke-dasharray="3,1"  />
<polyline points="233.56891891891894,160.00625 245.6472972972973,157.2139705882353" style="fill:none;stroke:#000000;stroke-width:1.75" stroke-dasharray="3,1"  />
<polyline points="245.6472972972973,157.2139705882353 257.7256756756757,165.03235294117647" style="fill:none;stroke:#000000;stroke-width:1.75" stroke-dasharray="3,1"  />
<polyline points="257.7256756756757,165.03235294117647 269.80405405405406,166.7077205882353" style="fill:none;stroke:#000000;stroke-width:1.75" stroke-dasharray="3,1"  />
<polyline points="269.80405405405406,166.7077205882353 281.88243243243244,180.11066176470587" style="fill:none;stroke:#000000;stroke-width:1.75" stroke-dasharray="3,1"  />
<polyline points="281.88243243243244,180.11066176470587 293.9608108108108,165.03235294117647" style="fill:none;stroke:#000000;stroke-width:1.75" stroke-dasharray="3,1"  />
<polyline points="293.9608108108108,165.03235294117647 306.0391891891892,181.22757352941176" style="fill:none;stroke:#000000;stroke-width:1.75" stroke-dasharray="3,1"  />
<polyline points="306.0391891891892,181.22757352941176 318.11756756756756,192.3966911764706" style="fill:none;stroke:#000000;stroke-width:1.75" stroke-dasharray="3,1"  />
<polyline points="318.11756756756756,192.3966911764706 330.195945945946,178.43529411764706" style="fill:none;stroke:#000000;stroke-width:1.75" stroke-dasharray="3,1"  />
<polyline points="330.195945945946,178.43529411764706 342.2743243243243,159.44779411764705" style="fill:none;stroke:#000000;stroke-width:1.75" stroke-dasharray="3,1"  />
<polyline points="342.2743243243243,159.44779411764705 354.3527027027027,167.26617647058822" style="fill:none;stroke:#000000;stroke-width:1.75" stroke-dasharray="3,1"  />
<polyline points="354.3527027027027,167.26617647058822 366.4310810810811,182.9029411764706" style="fill:none;stroke:#000000;stroke-width:1.75" stroke-dasharray="3,1"  />
<polyline points="366.4310810810811,182.9029411764706 378.5094594594595,187.37058823529412" style="fill:none;stroke:#000000;stroke-width:1.75" stroke-dasharray="3,1"  />
<polyline points="378.5094594594595,187.37058823529412 390.58783783783787,188.4875" style="fill:none;stroke:#000000;stroke-width:1.75" stroke-dasharray="3,1"  />
<polyline points="390.58783783783787,188.4875 402.66621621621624,195.74742647058824" style="fill:none;stroke:#000000;stroke-width:1.75" stroke-dasharray="3,1"  />
<polyline points="402.66621621621624,195.74742647058824 414.7445945945946,208.03345588235294" style="fill:none;stroke:#000000;stroke-width:1.75" stroke-dasharray="3,1"  />
<polyline points="414.7445945945946,208.03345588235294 426.822972972973,208.59191176470588" style="fill:none;stroke:#000000;stroke-width:1.75" stroke-dasharray="3,1"  />
<polyline points="426.822972972973,208.59191176470588 438.90135135135137,216.96875" style="fill:none;stroke:#000000;stroke-width:1.75" stroke-dasharray="3,1"  />
<polyline points="438.90135135135137,216.96875 450.97972972972974,219.7610294117647" style="fill:none;stroke:#000000;stroke-width:1.75" stroke-dasharray="3,1"  />
<polyline points="450.97972972972974,219.7610294117647 463.0581081081081,223.11176470588236" style="fill:none;stroke:#000000;stroke-width:1.75" stroke-dasharray="3,1"  />
<polyline points="463.0581081081081,223.11176470588236 475.1364864864865,238.7485294117647" style="fill:none;stroke:#000000;stroke-width:1.75" stroke-dasharray="3,1"  />
<polyline points="475.1364864864865,238.7485294117647 487.21486486486486,238.7485294117647" style="fill:none;stroke:#000000;stroke-width:1.75" stroke-dasharray="3,1"  />
<polyline points="487.21486486486486,238.7485294117647 499.29324324324324,235.95625" style="fill:none;stroke:#000000;stroke-width:1.75" stroke-dasharray="3,1"  />
<polyline points="499.29324324324324,235.95625 511.3716216216216,245.45" style="fill:none;stroke:#000000;stroke-width:1.75" stroke-dasharray="3,1"  />
<polyline points="511.3716216216216,245.45 523.45,239.30698529411762" style="fill:none;stroke:#000000;stroke-width:1.75" stroke-dasharray="3,1"  />
<polygon points="74.69000000000003,121.47279411764706 76.55000000000003,119.61279411764706 78.41000000000003,121.47279411764706 76.55000000000003,123.33279411764705" stroke="#F7F7F7" stroke-width="1.55" fill="#F7F7F7"  />
<polygon points="74.69000000000003,121.47279411764706 76.55000000000003,119.61279411764706 78.41000000000003,121.47279411764706 76.55000000000003,123.33279411764705" stroke="#000000" stroke-width="1.55" fill="#000000"  />
<polygon points="86.7683783783784,102.48529411764706 88.6283783783784,100.62529411764706 90.4883783783784,102.48529411764706 88.6283783783784,104.34529411764706" stroke="#F7F7F7" stroke-width="1.55" fill="#F7F7F7"  />
<polygon points="86.7683783783784,102.48529411764706 88.6283783783784,100.62529411764706 90.4883783783784,102.48529411764706 88.6283783783784,104.34529411764706" stroke="#000000" stroke-width="1.55" fill="#000000"  />
<polygon points="98.84675675675679,117.56360294117647 100.70675675675679,115.70360294117647 102.56675675675679,117.56360294117647 100.70675675675679,119.42360294117647" stroke="#F7F7F7" stroke-width="1.55" fill="#F7F7F7"  />
<polygon points="98.84675675675679,117.56360294117647 100.70675675675679,115.70360294117647 102.56675675675679,117.56360294117647 100.70675675675679,119.42360294117647" stroke="#000000" stroke-width="1.55" fill="#000000"  />
<polygon points="110.92513513513516,113.09595588235294 112.78513513513516,111.23595588235294 114.64513513513516,113.09595588235294 112.78513513513516,114.95595588235294" stroke="#F7F7F7" stroke-width="1.55" fill="#F7F7F7"  />
<polygon points="110.92513513513516,113.09595588235294 112.78513513513516,111.23595588235294 114.64513513513516,113.09595588235294 112.78513513513516,114.95595588235294" stroke="#000000" stroke-width="1.55" fill="#000000"  />
<polygon points="123.00351351351354,95.78382352941176 124.86351351351354,93.92382352941176 126.72351351351354,95.78382352941176 124.86351351351354,97.64382352941176" stroke="#F7F7F7" stroke-width="1.55" fill="#F7F7F7"  />
<polygon points="123.00351351351354,95.78382352941176 124.86351351351354,93.92382352941176 126.72351351351354,95.78382352941176 124.86351351351354,97.64382352941176" stroke="#000000" stroke-width="1.55" fill="#000000"  />
<polygon points="135.0818918918919,109.18676470588235 136.9418918918919,107.32676470588235 138.80189189189193,109.18676470588235 136.9418918918919,111.04676470588235" stroke="#F7F7F7" stroke-width="1.55" fill="#F7F7F7"  />
<polygon points="135.0818918918919,109.18676470588235 136.9418918918919,107.32676470588235 138.80189189189193,109.18676470588235 136.9418918918919,111.04676470588235" stroke="#000000" stroke-width="1.55" fill="#000000"  />
<polygon points="147.1602702702703,109.18676470588235 149.02027027027032,107.32676470588235 150.88027027027033,109.18676470588235 149.02027027027032,111.04676470588235" stroke="#F7F7F7" stroke-width="1.55" fill="#F7F7F7"  />
<polygon points="147.1602702702703,109.18676470588235 149.02027027027032,107.32676470588235 150.88027027027033,109.18676470588235 149.02027027027032,111.04676470588235" stroke="#000000" stroke-width="1.55" fill="#000000"  />
<polygon points="159.23864864864868,93.55 161.0986486486487,91.69 162.9586486486487,93.55 161.0986486486487,95.41" stroke="#F7F7F7" stroke-width="1.55" fill="#F7F7F7"  />
<polygon points="159.23864864864868,93.55 161.0986486486487,91.69 162.9586486486487,93.55 161.0986486486487,95.41" stroke="#000000" stroke-width="1.55" fill="#000000"  />
<polygon points="171.31702702702705,104.16066176470588 173.17702702702707,102.30066176470588 175.03702702702708,104.16066176470588 173.17702702702707,106.02066176470588" stroke="#F7F7F7" stroke-width="1.55" fill="#F7F7F7"  />
<polygon points="171.31702702702705,104.16066176470588 173.17702702702707,102.30066176470588 175.03702702702708,104.16066176470588 173.17702702702707,106.02066176470588" stroke="#000000" stroke-width="1.55" fill="#000000"  />
<polygon points="183.39540540540543,125.38198529411764 185.25540540540544,123.52198529411764 187.11540540540545,125.38198529411764 185.25540540540544,127.24198529411764" stroke="#F7F7F7" stroke-width="1.55" fill="#F7F7F7"  />
<polygon points="183.39540540540543,125.38198529411764 185.25540540540544,123.52198529411764 187.11540540540545,125.38198529411764 185.25540540540544,127.24198529411764" stroke="#000000" stroke-width="1.55" fill="#000000"  />
<polygon points="195.4737837837838,132.64191176470587 197.33378378378382,130.78191176470585 199.19378378378383,132.64191176470587 197.33378378378382,134.50191176470588" stroke="#F7F7F7" stroke-width="1.55" fill="#F7F7F7"  />
<polygon points="195.4737837837838,132.64191176470587 197.33378378378382,130.78191176470585 199.19378378378383,132.64191176470587 197.33378378378382,134.50191176470588" stroke="#000000" stroke-width="1.55" fill="#000000"  />
<polygon points="207.55216216216218,160.56470588235294 209.4121621621622,158.70470588235293 211.2721621621622,160.56470588235294 209.4121621621622,162.42470588235295" stroke="#F7F7F7" stroke-width="1.55" fill="#F7F7F7"  />
<polygon points="207.55216216216218,160.56470588235294 209.4121621621622,158.70470588235293 211.2721621621622,160.56470588235294 209.4121621621622,162.42470588235295" stroke="#000000" stroke-width="1.55" fill="#000000"  />
<polygon points="219.63054054054055,158.33088235294116 221.49054054054056,156.47088235294115 223.35054054054058,158.33088235294116 221.49054054054056,160.19088235294117" stroke="#F7F7F7" stroke-width="1.55" fill="#F7F7F7"  />
<polygon points="219.63054054054055,158.33088235294116 221.49054054054056,156.47088235294115 223.35054054054058,158.33088235294116 221.49054054054056,160.19088235294117" stroke="#000000" stroke-width="1.55" fill="#000000"  />
<polygon points="231.70891891891893,160.00625 233.56891891891894,158.14624999999998 235.42891891891895,160.00625 233.56891891891894,161.86625" stroke="#F7F7F7" stroke-width="1.55" fill="#F7F7F7"  />
<polygon points="231.70891891891893,160.00625 233.56891891891894,158.14624999999998 235.42891891891895,160.00625 233.56891891891894,161.86625" stroke="#000000" stroke-width="1.55" fill="#000000"  />
<polygon points="243.7872972972973,157.2139705882353 245.6472972972973,155.35397058823528 247.50729729729733,157.2139705882353 245.6472972972973,159.0739705882353" stroke="#F7F7F7" stroke-width="1.55" fill="#F7F7F7"  />
<polygon points="243.7872972972973,157.2139705882353 245.6472972972973,155.35397058823528 247.50729729729733,157.2139705882353 245.6472972972973,159.0739705882353" stroke="#000000" stroke-width="1.55" fill="#000000"  />
<polygon points="255.86567567567567,165.03235294117647 257.7256756756757,163.17235294117646 259.5856756756757,165.03235294117647 257.7256756756757,166.89235294117648" stroke="#F7F7F7" stroke-width="1.55" fill="#F7F7F7"  />
<polygon points="255.86567567567567,165.03235294117647 257.7256756756757,163.17235294117646 259.5856756756757,165.03235294117647 257.7256756756757,166.89235294117648" stroke="#000000" stroke-width="1.55" fill="#000000"  />
<polygon points="267.94405405405405,166.7077205882353 269.80405405405406,164.8477205882353 271.6640540540541,166.7077205882353 269.80405405405406,168.56772058823532" stroke="#F7F7F7" stroke-width="1.55" fill="#F7F7F7"  />
<polygon points="267.94405405405405,166.7077205882353 269.80405405405406,164.8477205882353 271.6640540540541,166.7077205882353 269.80405405405406,168.56772058823532" stroke="#000000" stroke-width="1.55" fill="#000000"  />
<polygon points="280.0224324324324,180.11066176470587 281.88243243243244,178.25066176470585 283.74243243243245,180.11066176470587 281.88243243243244,181.97066176470588" stroke="#F7F7F7" stroke-width="1.55" fill="#F7F7F7"  />
<polygon points="280.0224324324324,180.11066176470587 281.88243243243244,178.25066176470585 283.74243243243245,180.11066176470587 281.88243243243244,181.97066176470588" stroke="#000000" stroke-width="1.55" fill="#000000"  />
<polygon points="292.1008108108108,165.03235294117647 293.9608108108108,163.17235294117646 295.8208108108108,165.03235294117647 293.9608108108108,166.89235294117648" stroke="#F7F7F7" stroke-width="1.55" fill="#F7F7F7"  />
<polygon points="292.1008108108108,165.03235294117647 293.9608108108108,163.17235294117646 295.8208108108108,165.03235294117647 293.9608108108108,166.89235294117648" stroke="#000000" stroke-width="1.55" fill="#000000"  />
<polygon points="304.1791891891892,181.22757352941176 306.0391891891892,179.36757352941174 307.8991891891892,181.22757352941176 306.0391891891892,183.08757352941177" stroke="#F7F7F7" stroke-width="1.55" fill="#F7F7F7"  />
<polygon points="304.1791891891892,181.22757352941176 306.0391891891892,179.36757352941174 307.8991891891892,181.22757352941176 306.0391891891892,183.08757352941177" stroke="#000000" stroke-width="1.55" fill="#000000"  />
<polygon points="316.25756756756755,192.3966911764706 318.11756756756756,190.53669117647058 319.9775675675676,192.3966911764706 318.11756756756756,194.2566911764706" stroke="#F7F7F7" stroke-width="1.55" fill="#F7F7F7"  />
<polygon points="316.25756756756755,192.3966911764706 318.11756756756756,190.53669117647058 319.9775675675676,192.3966911764706 318.11756756756756,194.2566911764706" stroke="#000000" stroke-width="1.55" fill="#000000"  />
<polygon points="328.335945945946,178.43529411764706 330.195945945946,176.57529411764705 332.055945945946,178.43529411764706 330.195945945946,180.29529411764707" stroke="#F7F7F7" stroke-width="1.55" fill="#F7F7F7"  />
<polygon points="328.335945945946,178.43529411764706 330.195945945946,176.57529411764705 332.055945945946,178.43529411764706 330.195945945946,180.29529411764707" stroke="#000000" stroke-width="1.55" fill="#000000"  />
<polygon points="340.4143243243243,159.44779411764705 342.2743243243243,157.58779411764704 344.1343243243243,159.44779411764705 342.2743243243243,161.30779411764706" stroke="#F7F7F7" stroke-width="1.55" fill="#F7F7F7"  />
<polygon points="340.4143243243243,159.44779411764705 342.2743243243243,157.58779411764704 344.1343243243243,159.44779411764705 342.2743243243243,161.30779411764706" stroke="#000000" stroke-width="1.55" fill="#000000"  />
<polygon points="352.4927027027027,167.26617647058822 354.3527027027027,165.4061764705882 356.2127027027027,167.26617647058822 354.3527027027027,169.12617647058823" stroke="#F7F7F7" stroke-width="1.55" fill="#F7F7F7"  />
<polygon points="352.4927027027027,167.26617647058822 354.3527027027027,165.4061764705882 356.2127027027027,167.26617647058822 354.3527027027027,169.12617647058823" stroke="#000000" stroke-width="1.55" fill="#000000"  />
<polygon points="364.5710810810811,182.9029411764706 366.4310810810811,181.04294117647058 368.29108108108113,182.9029411764706 366.4310810810811,184.7629411764706" stroke="#F7F7F7" stroke-width="1.55" fill="#F7F7F7"  />
<polygon points="364.5710810810811,182.9029411764706 366.4310810810811,181.04294117647058 368.29108108108113,182.9029411764706 366.4310810810811,184.7629411764706" stroke="#000000" stroke-width="1.55" fill="#000000"  />
<polygon points="376.6494594594595,187.37058823529412 378.5094594594595,185.5105882352941 380.3694594594595,187.37058823529412 378.5094594594595,189.23058823529414" stroke="#F7F7F7" stroke-width="1.55" fill="#F7F7F7"  />
<polygon points="376.6494594594595,187.37058823529412 378.5094594594595,185.5105882352941 380.3694594594595,187.37058823529412 378.5094594594595,189.23058823529414" stroke="#000000" stroke-width="1.55" fill="#000000"  />
<polygon points="388.72783783783785,188.4875 390.58783783783787,186.6275 392.4478378378379,188.4875 390.58783783783787,190.34750000000003" stroke="#F7F7F7" stroke-width="1.55" fill="#F7F7F7"  />
<polygon points="388.72783783783785,188.4875 390.58783783783787,186.6275 392.4478378378379,188.4875 390.58783783783787,190.34750000000003" stroke="#000000" stroke-width="1.55" fill="#000000"  />
<polygon points="400.8062162162162,195.74742647058824 402.66621621621624,193.88742647058822 404.52621621621626,195.74742647058824 402.66621621621624,197.60742647058825" stroke="#F7F7F7" stroke-width="1.55" fill="#F7F7F7"  />
<polygon points="400.8062162162162,195.74742647058824 402.66621621621624,193.88742647058822 404.52621621621626,195.74742647058824 402.66621621621624,197.60742647058825" stroke="#000000" stroke-width="1.55" fill="#000000"  />
<polygon points="412.8845945945946,208.03345588235294 414.7445945945946,206.17345588235293 416.60459459459463,208.03345588235294 414.7445945945946,209.89345588235295" stroke="#F7F7F7" stroke-width="1.55" fill="#F7F7F7"  />
<polygon points="412.8845945945946,208.03345588235294 414.7445945945946,206.17345588235293 416.60459459459463,208.03345588235294 414.7445945945946,209.89345588235295" stroke="#000000" stroke-width="1.55" fill="#000000"  />
<polygon points="424.962972972973,208.59191176470588 426.822972972973,206.73191176470587 428.682972972973,208.59191176470588 426.822972972973,210.4519117647059" stroke="#F7F7F7" stroke-width="1.55" fill="#F7F7F7"  />
<polygon points="424.962972972973,208.59191176470588 426.822972972973,206.73191176470587 428.682972972973,208.59191176470588 426.822972972973,210.4519117647059" stroke="#000000" stroke-width="1.55" fill="#000000"  />
<polygon points="437.04135135135135,216.96875 438.90135135135137,215.10875 440.7613513513514,216.96875 438.90135135135137,218.82875" stroke="#F7F7F7" stroke-width="1.55" fill="#F7F7F7"  />
<polygon points="437.04135135135135,216.96875 438.90135135135137,215.10875 440.7613513513514,216.96875 438.90135135135137,218.82875" stroke="#000000" stroke-width="1.55" fill="#000000"  />
<polygon points="449.1197297297297,219.7610294117647 450.97972972972974,217.90102941176468 452.83972972972975,219.7610294117647 450.97972972972974,221.6210294117647" stroke="#F7F7F7" stroke-width="1.55" fill="#F7F7F7"  />
<polygon points="449.1197297297297,219.7610294117647 450.97972972972974,217.90102941176468 452.83972972972975,219.7610294117647 450.97972972972974,221.6210294117647" stroke="#000000" stroke-width="1.55" fill="#000000"  />
<polygon points="461.1981081081081,223.11176470588236 463.0581081081081,221.25176470588235 464.91810810810813,223.11176470588236 463.0581081081081,224.97176470588238" stroke="#F7F7F7" stroke-width="1.55" fill="#F7F7F7"  />
<polygon points="461.1981081081081,223.11176470588236 463.0581081081081,221.25176470588235 464.91810810810813,223.11176470588236 463.0581081081081,224.97176470588238" stroke="#000000" stroke-width="1.55" fill="#000000"  />
<polygon points="473.2764864864865,238.7485294117647 475.1364864864865,236.8885294117647 476.9964864864865,238.7485294117647 475.1364864864865,240.60852941176472" stroke="#F7F7F7" stroke-width="1.55" fill="#F7F7F7"  />
<polygon points="473.2764864864865,238.7485294117647 475.1364864864865,236.8885294117647 476.9964864864865,238.7485294117647 475.1364864864865,240.60852941176472" stroke="#000000" stroke-width="1.55" fill="#000000"  />
<polygon points="485.35486486486485,238.7485294117647 487.21486486486486,236.8885294117647 489.0748648648649,238.7485294117647 487.21486486486486,240.60852941176472" stroke="#F7F7F7" stroke-width="1.55" fill="#F7F7F7"  />
<polygon points="485.35486486486485,238.7485294117647 487.21486486486486,236.8885294117647 489.0748648648649,238.7485294117647 487.21486486486486,240.60852941176472" stroke="#000000" stroke-width="1.55" fill="#000000"  />
<polygon points="497.4332432432432,235.95625 499.29324324324324,234.09625 501.15324324324325,235.95625 499.29324324324324,237.81625000000003" stroke="#F7F7F7" stroke-width="1.55" fill="#F7F7F7"  />
<polygon points="497.4332432432432,235.95625 499.29324324324324,234.09625 501.15324324324325,235.95625 499.29324324324324,237.81625000000003" stroke="#000000" stroke-width="1.55" fill="#000000"  />
<polygon points="509.5116216216216,245.45 511.3716216216216,243.58999999999997 513.2316216216216,245.45 511.3716216216216,247.31" stroke="#F7F7F7" stroke-width="1.55" fill="#F7F7F7"  />
<polygon points="509.5116216216216,245.45 511.3716216216216,243.58999999999997 513.2316216216216,245.45 511.3716216216216,247.31" stroke="#000000" stroke-width="1.55" fill="#000000"  />
<polygon points="521.59,239.30698529411762 523.45,237.4469852941176 525.3100000000001,239.30698529411762 523.45,241.16698529411764" stroke="#F7F7F7" stroke-width="1.55" fill="#F7F7F7"  />
<polygon points="521.59,239.30698529411762 523.45,237.4469852941176 525.3100000000001,239.30698529411762 523.45,241.16698529411764" stroke="#000000" stroke-width="1.55" fill="#000000"  />
</svg>